# xmcd
#
# Track frame offsets:
#	150
#	14359
#	28374
#	40464
#	53774
#	67260
#	81104
#	95468
#	109628
#	121470
#	134305
#	146581
#
# Disc length: 2157 seconds
#
# Revision: 0
# Processed by: cddbd v1.5.2PL0 Copyright (c) Steve Scherf et al.
# Submitted via: EasyCDDAExtractor 16.0.0.1
#
DISCID=ac086b0c
DTITLE=Don Williams - Greatest Hits
DYEAR=1900
DGENRE=
TTITLE0=Amanda
TTITLE1=Come Early Morning
TTITLE2=Ghost Story
TTITLE3=The Shelter of Your Eyes
TTITLE4=I Wouldn't Want to Live If You Didn't Love Me
TTITLE5=We Should Be Together
TTITLE6=She's in Love with a Rodeo Man
TTITLE7=Down the Road I Go
TTITLE8=The Ties That Bind
TTITLE9=Atta Way to Go
TTITLE10=Don't You BDon't You Believe
TTITLE11=I Recall a Gypsy Woman
EXTD=
EXTT0=
EXTT1=
EXTT2=
EXTT3=
EXTT4=
EXTT5=
EXTT6=
EXTT7=
EXTT8=
EXTT9=
EXTT10=
EXTT11=
PLAYORDER=
